# File produced by Open Asset Import Library (http://www.assimp.sf.net)
# (assimp v3.1.187496374)

mtllib Sword.obj.mtl

# 108 vertex positions
v  0.0216506 -0.0125 0.5
v  0.0241481 -0.00647048 0.65
v  0.0216506 -0.0125 0.65
v  0.0241481 -0.00647048 0.5
v  0.0176777 -0.0176777 0.5
v  0.025 0 0.5
v  0.025 0 0.65
v  0.0241481 0.00647048 0.65
v  0.0241481 0.00647048 0.5
v  0.0216506 0.0125 0.5
v  0.0216506 0.0125 0.65
v  0.0176777 0.0176777 0.5
v  0.0176777 0.0176777 0.65
v  0.0125 0.0216506 0.5
v  0.0125 0.0216506 0.65
v  0.00647048 0.0241481 0.65
v  0.00647048 0.0241481 0.5
v  5.18874e-16 0.025 0.5
v  -8.1215e-16 0.025 0.65
v  0.0176777 -0.0176777 0.65
v  0.0125 -0.0216506 0.5
v  0.0125 -0.0216506 0.65
v  0.00647048 -0.0241481 0.65
v  0.00647048 -0.0241481 0.5
v  5.18874e-16 -0.025 0.5
v  -8.1215e-16 -0.025 0.65
v  -0.00647048 -0.0241481 0.5
v  -0.0125 -0.0216506 0.5
v  -0.0176777 -0.0176777 0.5
v  -0.0216506 -0.0125 0.5
v  -0.0241481 -0.00647048 0.5
v  -0.025 3.06162e-18 0.5
v  -0.0241481 0.00647048 0.5
v  -0.0216506 0.0125 0.5
v  -0.0176777 0.0176777 0.5
v  -0.0125 0.0216506 0.5
v  -0.00647048 0.0241481 0.5
v  -0.00647048 -0.0241481 0.65
v  -0.0125 -0.0216506 0.65
v  -0.0176777 -0.0176777 0.65
v  -0.0216506 -0.0125 0.65
v  -0.0241481 -0.00647048 0.65
v  -0.025 3.06162e-18 0.65
v  -0.0241481 0.00647048 0.65
v  -0.0216506 0.0125 0.65
v  -0.0176777 0.0176777 0.65
v  -0.0125 0.0216506 0.65
v  -0.00647048 0.0241481 0.65
v  -0.05 0 0.675
v  -3.40652e-15 0 1.5
v  -0.05 0 1.225
v  -1.20131e-15 0 0.675
v  -9.47509e-16 0 1.225
v  0.05 0 1.225
v  0.05 0 0.675
v  -9.47509e-16 0.025 1.225
v  -9.47509e-16 -0.025 1.225
v  -1.20131e-15 0.025 0.675
v  -1.20131e-15 -0.025 0.675
v  0.0772741 0.0207055 0.675
v  0.069282 0.04 0.675
v  -0.08 9.79717e-18 0.675
v  -0.0772741 0.0207055 0.675
v  -0.069282 0.04 0.675
v  0.08 0 0.675
v  0.0772741 -0.0207055 0.675
v  -0.069282 -0.04 0.675
v  -0.0772741 -0.0207055 0.675
v  0.069282 -0.04 0.675
v  -0.0565685 -0.0565685 0.675
v  0.0565685 -0.0565685 0.675
v  -0.04 -0.069282 0.675
v  0.04 -0.069282 0.675
v  -0.0207055 -0.0772741 0.675
v  0.0207055 -0.0772741 0.675
v  -1.20131e-15 -0.08 0.675
v  0.0565685 0.0565685 0.675
v  -0.0565685 0.0565685 0.675
v  0.04 0.069282 0.675
v  -0.04 0.069282 0.675
v  0.0207055 0.0772741 0.675
v  -0.0207055 0.0772741 0.675
v  -1.20131e-15 0.08 0.675
v  -0.0772741 -0.0207055 0.65
v  -0.069282 -0.04 0.65
v  -0.08 9.79717e-18 0.65
v  0.0772741 -0.0207055 0.65
v  0.069282 -0.04 0.65
v  -0.0565685 -0.0565685 0.65
v  0.08 0 0.65
v  0.0772741 0.0207055 0.65
v  0.069282 0.04 0.65
v  -0.069282 0.04 0.65
v  0.0565685 0.0565685 0.65
v  -0.0772741 0.0207055 0.65
v  -0.0565685 0.0565685 0.65
v  0.04 0.069282 0.65
v  -0.04 0.069282 0.65
v  0.0207055 0.0772741 0.65
v  -0.0207055 0.0772741 0.65
v  -8.1215e-16 0.08 0.65
v  0.0565685 -0.0565685 0.65
v  0.04 -0.069282 0.65
v  -0.04 -0.069282 0.65
v  0.0207055 -0.0772741 0.65
v  -0.0207055 -0.0772741 0.65
v  -8.1215e-16 -0.08 0.65
v  5.18874e-16 0 0.5

# 0 UV coordinates

# 69 vertex normals
vn 0.021997 -0.0127 -1.48437e-17
vn 0.0245345 -0.006574 3.73314e-18
vn 0.0179605 -0.0179605 9.59951e-18
vn 0.0254 -6.11124e-18 3.79536e-17
vn 0.0245345 0.006574 3.73314e-18
vn 0.021997 0.0127 -1.65325e-17
vn 0.0179605 0.0179605 1.1555e-17
vn 0.0127 0.021997 2.05767e-17
vn 0.006574 0.0245345 1.01217e-17
vn 0.00331537 0.0251827 3.06231e-18
vn 0.0127 -0.021997 1.99545e-17
vn 0.006574 -0.0245345 7.84405e-18
vn 0.00331537 -0.0251827 -4.09776e-18
vn -8.28365e-18 0 -0.0254
vn -0.006574 -0.0245345 -5.75526e-18
vn -0.00331537 -0.0251827 4.4062e-19
vn -0.0127 -0.021997 -1.35326e-17
vn -0.0179605 -0.0179605 1.77769e-18
vn -0.021997 -0.0127 2.21322e-17
vn -0.0245345 -0.006574 -5.77748e-18
vn -0.0254 8.601e-18 -2.65764e-17
vn -0.0254 8.37466e-18 -2.65764e-17
vn -0.0245345 0.006574 3.64426e-18
vn -0.021997 0.0127 1.20883e-17
vn -0.0179605 0.0179605 -9.59951e-18
vn -0.0127 0.021997 -1.86213e-17
vn -0.006574 0.0245345 -6.44412e-18
vn -0.00331537 0.0251827 4.22995e-18
vn 0 -0.0254 0
vn -0.0113219 0.0226437 0.00205852
vn -0.0113219 -0.0226437 0.00205852
vn -0.0113592 0.0227185 -2.51153e-17
vn -0.0113592 -0.0227185 -1.26899e-17
vn 8.28365e-18 0 0.0254
vn 8.28365e-18 -5.04965e-34 0.0254
vn 0.0254 -7.77651e-19 -8.28365e-18
vn 0.0254 -2.33295e-18 -8.28365e-18
vn 0.0254 0 -8.28365e-18
vn 0.0113219 0.0226437 0.00205852
vn 0.0113219 -0.0226437 0.00205852
vn 0.0113592 0.0227185 2.51153e-17
vn 0.0113592 -0.0227185 2.54678e-17
vn 0.021997 0.0127 -2.57765e-17
vn 0.0179605 0.0179605 -3.55538e-19
vn 0.0245345 0.006574 4.44422e-19
vn 0.0127 0.021997 2.07323e-17
vn 0.006574 0.0245345 1.22994e-17
vn -1.11813e-16 0.0254 -1.43326e-18
vn -9.03105e-17 0.0254 -1.43326e-18
vn -0.006574 0.0245345 -1.13772e-17
vn -0.0127 0.021997 -1.77102e-17
vn -0.0179605 0.0179605 -1.9999e-18
vn -0.021997 0.0127 1.9199e-17
vn -0.0245345 0.006574 -6.93298e-18
vn -0.0254 3.84782e-18 -3.96424e-17
vn -0.0254 4.07416e-18 -3.96424e-17
vn -0.0245345 -0.006574 -4.44422e-18
vn -0.021997 -0.0127 2.34655e-17
vn -0.0179605 -0.0179605 -8.88844e-19
vn -0.0127 -0.021997 -2.79541e-17
vn -0.006574 -0.0245345 -1.80657e-17
vn -1.1634e-16 -0.0254 -1.04439e-18
vn -9.95906e-17 -0.0254 -1.04439e-18
vn 0.006574 -0.0245345 1.41771e-17
vn 0.0127 -0.021997 2.43543e-17
vn 0.0179605 -0.0179605 1.19994e-18
vn 0.021997 -0.0127 -1.79546e-17
vn 0.0245345 -0.006574 8.88844e-18
vn 0.0254 -1.35805e-18 3.67092e-17

# Mesh 'SketchUp' with 226 faces
g SketchUp
usemtl ID4
f  1//1 2//2 3//1
f  2//2 1//1 4//2
f  3//1 5//3 1//1
f  2//2 6//4 7//4
f  6//4 2//2 4//2
f  6//4 8//5 7//4
f  8//5 6//4 9//5
f  8//5 10//6 11//6
f  10//6 8//5 9//5
f  12//7 11//6 10//6
f  11//6 12//7 13//7
f  14//8 13//7 12//7
f  13//7 14//8 15//8
f  16//9 14//8 17//9
f  14//8 16//9 15//8
f  16//9 18//10 19//10
f  18//10 16//9 17//9
f  5//3 3//1 20//3
f  20//3 21//11 5//3
f  21//11 20//3 22//11
f  21//11 23//12 24//12
f  23//12 21//11 22//11
f  25//13 23//12 26//13
f  23//12 25//13 24//12
f  27//14 24//14 25//14
f  24//14 27//14 21//14
f  21//14 27//14 28//14
f  21//14 28//14 5//14
f  5//14 28//14 29//14
f  5//14 29//14 1//14
f  1//14 29//14 30//14
f  1//14 30//14 4//14
f  4//14 30//14 31//14
f  4//14 31//14 6//14
f  6//14 31//14 32//14
f  6//14 32//14 9//14
f  9//14 32//14 33//14
f  9//14 33//14 10//14
f  10//14 33//14 34//14
f  10//14 34//14 12//14
f  12//14 34//14 35//14
f  12//14 35//14 14//14
f  14//14 35//14 36//14
f  14//14 36//14 17//14
f  17//14 36//14 37//14
f  17//14 37//14 18//14
f  27//15 26//16 38//15
f  26//16 27//15 25//16
f  27//15 39//17 28//17
f  39//17 27//15 38//15
f  29//18 39//17 40//18
f  39//17 29//18 28//17
f  40//18 30//19 29//18
f  30//19 40//18 41//19
f  42//20 30//19 41//19
f  30//19 42//20 31//20
f  32//21 42//20 43//22
f  42//20 32//21 31//20
f  44//23 32//21 43//22
f  32//21 44//23 33//23
f  34//24 44//23 45//24
f  44//23 34//24 33//23
f  46//25 34//24 45//24
f  34//24 46//25 35//25
f  47//26 35//25 46//25
f  35//25 47//26 36//26
f  47//26 37//27 36//26
f  37//27 47//26 48//27
f  19//28 37//27 48//27
f  37//27 19//28 18//28
f  49//29 50//29 51//29
f  50//29 49//29 52//29
f  50//29 52//29 53//29
f  53//29 54//29 50//29
f  55//29 53//29 52//29
f  54//29 53//29 55//29
f  56//30 51//30 50//30
f  57//31 50//31 51//31
f  56//32 49//32 51//32
f  49//32 56//32 58//32
f  49//33 57//33 51//33
f  57//33 49//33 59//33
f  58//34 49//34 52//34
f  52//34 60//35 58//34
f  58//34 60//35 61//35
f  62//35 49//34 58//34
f  62//35 58//34 63//35
f  63//35 58//34 64//35
f  64//35 58//34 61//35
f  52//34 59//34 55//34
f  55//34 60//35 52//34
f  49//34 59//34 52//34
f  55//34 65//35 60//35
f  59//34 66//35 55//34
f  55//34 66//35 65//35
f  67//35 66//35 59//34
f  59//34 68//35 67//35
f  68//35 59//34 49//34
f  67//35 69//35 66//35
f  70//35 69//35 67//35
f  70//35 71//35 69//35
f  72//35 71//35 70//35
f  72//35 73//35 71//35
f  74//35 73//35 72//35
f  74//35 75//35 73//35
f  75//35 74//35 76//35
f  68//35 49//34 62//35
f  64//35 61//35 77//35
f  64//35 77//35 78//35
f  78//35 77//35 79//35
f  78//35 79//35 80//35
f  80//35 79//35 81//35
f  80//35 81//35 82//35
f  82//35 81//35 83//35
f  52//36 56//36 53//36
f  56//36 52//36 58//36
f  53//36 59//37 52//36
f  56//36 50//38 53//36
f  59//37 53//36 57//37
f  53//36 50//38 57//37
f  54//39 56//39 50//39
f  51//14 53//14 57//14
f  53//14 51//14 56//14
f  53//14 54//14 57//14
f  54//14 53//14 56//14
f  54//40 50//40 57//40
f  56//41 55//41 58//41
f  55//41 56//41 54//41
f  55//42 57//42 59//42
f  57//42 55//42 54//42
f  84//14 26//14 85//14
f  26//14 84//14 38//14
f  38//14 84//14 39//14
f  39//14 84//14 40//14
f  40//14 84//14 86//14
f  87//14 85//14 26//14
f  87//14 26//14 23//14
f  88//14 89//14 85//14
f  88//14 85//14 87//14
f  87//14 23//14 22//14
f  87//14 22//14 20//14
f  87//14 20//14 90//14
f  90//14 20//14 3//14
f  90//14 3//14 2//14
f  90//14 2//14 7//14
f  90//14 7//14 8//14
f  90//14 8//14 91//14
f  91//14 8//14 11//14
f  91//14 11//14 13//14
f  91//14 13//14 15//14
f  91//14 15//14 92//14
f  92//14 15//14 16//14
f  19//14 93//14 92//14
f  92//14 93//14 94//14
f  92//14 16//14 19//14
f  48//14 93//14 19//14
f  47//14 95//14 93//14
f  47//14 93//14 48//14
f  94//14 93//14 96//14
f  94//14 96//14 97//14
f  97//14 96//14 98//14
f  97//14 98//14 99//14
f  99//14 98//14 100//14
f  99//14 100//14 101//14
f  46//14 95//14 47//14
f  45//14 95//14 46//14
f  44//14 95//14 45//14
f  44//14 86//14 95//14
f  43//14 86//14 44//14
f  40//14 86//14 41//14
f  41//14 86//14 42//14
f  42//14 86//14 43//14
f  102//14 89//14 88//14
f  103//14 104//14 102//14
f  102//14 104//14 89//14
f  105//14 106//14 103//14
f  103//14 106//14 104//14
f  106//14 105//14 107//14
f  92//43 77//44 61//43
f  77//44 92//43 94//44
f  60//45 92//43 61//43
f  92//43 60//45 91//45
f  77//44 97//46 79//46
f  97//46 77//44 94//44
f  81//47 97//46 99//47
f  97//46 81//47 79//46
f  81//47 101//48 83//49
f  101//48 81//47 99//47
f  82//50 101//48 100//50
f  101//48 82//50 83//49
f  100//50 80//51 82//50
f  80//51 100//50 98//51
f  80//51 96//52 78//52
f  96//52 80//51 98//51
f  96//52 64//53 78//52
f  64//53 96//52 93//53
f  93//53 63//54 64//53
f  63//54 93//53 95//54
f  63//54 86//55 62//56
f  86//55 63//54 95//54
f  86//55 68//57 62//56
f  68//57 86//55 84//57
f  68//57 85//58 67//58
f  85//58 68//57 84//57
f  89//59 67//58 85//58
f  67//58 89//59 70//59
f  89//59 72//60 70//59
f  72//60 89//59 104//60
f  106//61 72//60 104//60
f  72//60 106//61 74//61
f  107//62 74//61 106//61
f  74//61 107//62 76//63
f  107//62 75//64 76//63
f  75//64 107//62 105//64
f  103//65 75//64 105//64
f  75//64 103//65 73//65
f  102//66 73//65 103//65
f  73//65 102//66 71//66
f  102//66 69//67 71//66
f  69//67 102//66 88//67
f  88//67 66//68 69//67
f  66//68 88//67 87//68
f  66//68 90//69 65//69
f  90//69 66//68 87//68
f  90//69 60//45 65//69
f  60//45 90//69 91//45

# Mesh 'SketchUp' with 3 faces
g SketchUp
usemtl ID23
l  19 58
l  26 59
l  108 52

